<svg width="16" height="40" viewBox="0 0 16 40" fill="none" xmlns="http://www.w3.org/2000/svg">
<path fill-rule="evenodd" clip-rule="evenodd" d="M3.99341 2C5.09655 2 5.99366 2.897 5.99366 4C5.99366 5.103 5.09655 6 3.99341 6C2.89028 6 1.99316 5.103 1.99316 4C1.99316 2.897 2.89028 2 3.99341 2ZM3.00538 7.859V16.181L1.86823 15.05L0.451056 16.464L3.9855 20L3.9945 19.99L4.0035 20L7.53894 16.464L6.13077 15.05L5.00563 16.181V7.859C6.44281 7.687 8 6.5 8 4C8 1.791 6.20578 0 3.9965 0C1.78722 0 0 1.791 0 4C0 5.862 1.00513 7.413 3.00538 7.859Z" transform="scale(2)" fill="white"/>
</svg>
