<svg width="19" height="19" viewBox="0 0 19 19" fill="none" xmlns="http://www.w3.org/2000/svg">
<path fill-rule="evenodd" clip-rule="evenodd" d="M18.9999 9.50245C19.0029 9.71301 18.92 9.91571 18.7703 10.0638C18.7253 10.1054 18.6746 10.1406 18.6199 10.1683C18.3792 10.6406 17.9361 10.9771 17.4166 11.0821H16.6249V17.4164C16.6249 18.291 15.9161 19 15.0416 19H3.95832C3.08387 19 2.37499 18.291 2.37499 17.4164V11.0821H1.58333C0.729576 11.0782 0.0326667 10.398 0.00791663 9.54441C0.00791663 9.53253 0 9.52066 0 9.50878V9.49849C0.00534869 9.2996 0.0876533 9.11055 0.229582 8.97115L8.85871 0.33586C8.87867 0.294002 8.90542 0.255742 8.93788 0.222634C9.25383 -0.0742112 9.74609 -0.0742112 10.062 0.222634C10.0945 0.256027 10.1213 0.29455 10.1412 0.336652L18.7703 8.97115C18.9123 9.11055 18.9946 9.2996 18.9999 9.49849V9.50245ZM8.70825 17.4204H10.2916V13.4614H8.70825V17.4204ZM9.50008 1.8862L1.88428 9.4985H3.95844V17.4164H7.12509V12.6657C7.12509 12.2284 7.47953 11.8739 7.91675 11.8739H11.0834C11.5206 11.8739 11.8751 12.2284 11.8751 12.6657V17.4164H15.0417V9.4985H17.1159L9.50008 1.8862Z" fill="#001E6B"/>
</svg>
